<svg width="69" height="56" viewBox="0 0 69 56" fill="none" xmlns="http://www.w3.org/2000/svg">
<g clip-path="url(#clip0)">
<path d="M39.15 16.8688L37.84 15.8688C37.6353 15.703 37.3734 15.6247 37.1112 15.651C36.8491 15.6772 36.6079 15.8058 36.44 16.0088L18.31 36.8288L18.59 37.1388L23.08 32.9988C22.9304 32.9386 22.8066 32.8279 22.7301 32.6859C22.6536 32.5438 22.6293 32.3795 22.6614 32.2214C22.6935 32.0634 22.7799 31.9215 22.9057 31.8206C23.0315 31.7196 23.1887 31.6659 23.35 31.6688C23.4954 31.6688 23.637 31.7154 23.754 31.8018C23.871 31.8882 23.9572 32.0098 24 32.1488L29.92 26.6588C30.0107 26.5858 30.1236 26.5459 30.24 26.5459C30.3564 26.5459 30.4693 26.5858 30.56 26.6588L30.86 26.8788C30.9615 26.9516 31.0865 26.9837 31.2105 26.9689C31.3345 26.9541 31.4485 26.8934 31.53 26.7988L39.27 18.1188C39.3523 18.0327 39.415 17.9298 39.454 17.8172C39.493 17.7046 39.5072 17.585 39.4958 17.4664C39.4845 17.3478 39.4477 17.233 39.388 17.1299C39.3283 17.0268 39.2472 16.9378 39.15 16.8688Z" fill="#303030"/>
<path d="M47.67 22.73C43.7025 25.553 39.2579 27.6364 34.55 28.88C29.8775 30.0683 25.0962 30.7786 20.28 31C20.377 31.7102 20.5514 32.4077 20.8 33.08C23.52 35.54 44 31.34 48 26.48C48.85 25.47 47.67 22.73 47.67 22.73ZM23.35 33C23.2155 33 23.0841 32.9601 22.9722 32.8854C22.8604 32.8107 22.7733 32.7045 22.7218 32.5802C22.6703 32.4559 22.6569 32.3192 22.6831 32.1873C22.7093 32.0554 22.7741 31.9342 22.8692 31.8391C22.9643 31.744 23.0855 31.6793 23.2174 31.653C23.3493 31.6268 23.486 31.6403 23.6103 31.6917C23.7345 31.7432 23.8407 31.8304 23.9154 31.9422C23.9901 32.054 24.03 32.1855 24.03 32.32C24.0314 32.4096 24.0147 32.4987 23.981 32.5818C23.9473 32.6649 23.8973 32.7404 23.8339 32.8038C23.7705 32.8672 23.695 32.9173 23.6118 32.951C23.5287 32.9847 23.4397 33.0013 23.35 33Z" fill="#303030"/>
<path d="M3.99999 21.2899L4.15999 20.5999L6.75999 21.1899C6.9745 21.5861 7.10713 22.0214 7.14999 22.4699C7.19962 22.945 7.1692 23.425 7.05999 23.8899C6.93055 24.5352 6.634 25.1352 6.19999 25.6299C5.78708 26.097 5.25467 26.4428 4.65999 26.6299C4.04709 26.8189 3.3952 26.8431 2.76999 26.6999C2.14341 26.5646 1.56586 26.2603 1.09999 25.8199C0.641263 25.3969 0.311859 24.8526 0.149994 24.2499C-0.0295716 23.5954 -0.0295716 22.9045 0.149994 22.2499C0.257472 21.76 0.450421 21.2929 0.719994 20.8699C0.975133 20.4853 1.31784 20.1665 1.71999 19.9399L2.07999 20.4899C1.7353 20.7016 1.43941 20.9839 1.21188 21.3183C0.984338 21.6527 0.830321 22.0316 0.759994 22.4299C0.635981 22.9473 0.646308 23.4877 0.789994 23.9999C0.924364 24.4863 1.19089 24.9259 1.55999 25.2699C1.93937 25.6367 2.41403 25.8896 2.92999 25.9999C3.43032 26.1404 3.95967 26.1404 4.45999 25.9999C4.93928 25.8417 5.36976 25.5628 5.70999 25.1899C6.05964 24.7873 6.30059 24.3019 6.40999 23.7799C6.57453 23.1468 6.53248 22.4776 6.28999 21.8699L3.99999 21.2899Z" fill="#303030"/>
<path d="M9.65998 14.9999L7.32998 18.1099L8.32998 19.8999L7.86998 20.5199L4.16998 13.7699L4.59998 13.1799L12.13 14.7999L11.66 15.4199L9.65998 14.9999ZM8.99998 14.8399L4.99998 13.9399L6.99998 17.5299L8.99998 14.8399Z" fill="#303030"/>
<path d="M9 8.54936L9.6 8.09937L13.41 13.1994L16.55 10.8494L16.93 11.3594L13.2 14.1494L9 8.54936Z" fill="#303030"/>
<path d="M15.3 4.37959L15.97 4.07959L18.61 9.85959L22.18 8.23959L22.44 8.81959L18.2 10.7496L15.3 4.37959Z" fill="#303030"/>
<path d="M28.48 6.67954L28.63 7.30954L23.81 8.43954L22.21 1.61954L26.89 0.529541L27.03 1.14954L23.03 2.07954L23.6 4.49954L27.12 3.66954L27.27 4.28954L23.74 5.10954L24.34 7.63954L28.48 6.67954Z" fill="#303030"/>
<path d="M35.35 6.92948L33.68 4.72948C33.4935 4.7398 33.3065 4.7398 33.12 4.72948L31.24 4.78948L31.31 7.00948H30.57L30.34 0.00948039L33 -0.000519614C33.7521 -0.0699777 34.5042 0.132233 35.12 0.569481C35.3795 0.778474 35.5882 1.04369 35.7303 1.34511C35.8723 1.64654 35.944 1.97629 35.94 2.30948C35.9692 2.80367 35.8396 3.29424 35.57 3.70948C35.2827 4.10804 34.8766 4.40555 34.41 4.55948L36.16 6.89948L35.35 6.92948ZM34.65 3.63948C34.8298 3.47483 34.9692 3.27105 35.0577 3.04391C35.1461 2.81676 35.1811 2.57232 35.16 2.32948C35.1652 2.08535 35.1147 1.84325 35.0125 1.62149C34.9103 1.39973 34.759 1.20413 34.57 1.04948C34.1091 0.73696 33.5549 0.592219 33 0.639481L31.1 0.709481L31.22 4.20948L33.08 4.14948C33.6472 4.17047 34.2035 3.98977 34.65 3.63948Z" fill="#303030"/>
<path d="M40.64 5.06951L40.28 7.45951L39.55 7.34951L39.92 4.99951L37.85 -0.000488281L38.63 0.119512L40.4 4.37951L43.4 0.849512L44.1 0.999512L40.64 5.06951Z" fill="#303030"/>
<path d="M50.53 4.64944L51.4 5.77945L51.02 6.07945L50.15 4.91944L49.6 6.22945L49.18 6.04945L49.74 4.73944L48.3 4.92944V4.44944L49.72 4.28944L48.84 3.15944L49.23 2.85944L50 3.99944L50.54 2.67944L50.97 2.85944L50.46 4.19944L51.9 3.99944V4.48944L50.53 4.64944Z" fill="#303030"/>
<path d="M53.87 12.7094C53.6339 12.3453 53.4866 11.9309 53.44 11.4994L54.03 11.2394C54.0743 11.6358 54.2039 12.0179 54.41 12.3594C54.6334 12.7423 54.9248 13.0812 55.27 13.3594C55.6264 13.7007 56.0813 13.9211 56.57 13.9894C56.7466 14.0058 56.9245 13.9788 57.0883 13.9109C57.2521 13.8429 57.3969 13.736 57.51 13.5994C57.5929 13.5079 57.6562 13.4003 57.6957 13.2834C57.7353 13.1664 57.7504 13.0425 57.74 12.9194C57.7069 12.6757 57.6253 12.4411 57.5 12.2294C57.3121 11.9225 57.1085 11.6254 56.89 11.3394C56.6238 10.9906 56.3831 10.623 56.17 10.2394C56.0071 9.95235 55.9178 9.62942 55.91 9.29943C55.9093 8.92885 56.0486 8.57169 56.3 8.29943C56.5179 8.03556 56.8055 7.83808 57.13 7.72943C57.4926 7.6247 57.8774 7.6247 58.24 7.72943C58.7072 7.88221 59.139 8.12702 59.51 8.44943C59.8179 8.7055 60.0903 9.00143 60.32 9.32943C60.5324 9.63359 60.6914 9.97178 60.79 10.3294L60.22 10.6294C60.1206 10.2961 59.9723 9.9793 59.78 9.68943C59.5884 9.43057 59.3631 9.19851 59.11 8.99943C58.7589 8.65967 58.3054 8.44526 57.82 8.38943C57.6416 8.37451 57.4623 8.40417 57.2982 8.47574C57.1342 8.54731 56.9904 8.65854 56.88 8.79943C56.7949 8.88952 56.7304 8.99692 56.6907 9.11428C56.651 9.23165 56.6371 9.3562 56.65 9.47943C56.6734 9.7316 56.7556 9.97477 56.89 10.1894C57.03 10.4194 57.23 10.7194 57.5 11.0794C57.7677 11.4202 58.0084 11.7813 58.22 12.1594C58.3864 12.4456 58.4792 12.7686 58.49 13.0994C58.4907 13.47 58.3514 13.8272 58.1 14.0994C57.8813 14.3669 57.5894 14.565 57.26 14.6694C56.8981 14.7787 56.5119 14.7787 56.15 14.6694C55.6796 14.5171 55.2444 14.2723 54.87 13.9494C54.4663 13.5981 54.1278 13.1783 53.87 12.7094Z" fill="#303030"/>
<path d="M63.93 14.1688L62.52 12.1688L63.04 11.7988L66.29 16.4388L65.77 16.8088L64.36 14.8088L59.14 18.4588L58.72 17.8488L63.93 14.1688Z" fill="#303030"/>
<path d="M61.69 22.39C61.8685 21.7856 62.2153 21.2445 62.69 20.83C63.1543 20.4141 63.7199 20.1279 64.33 20C64.9519 19.8572 65.6004 19.8814 66.21 20.07C66.7983 20.2645 67.3257 20.6092 67.74 21.07C68.1708 21.5656 68.4639 22.1656 68.59 22.81C68.7556 23.4426 68.7556 24.1073 68.59 24.74C68.4065 25.3421 68.0605 25.8819 67.59 26.3C67.1128 26.727 66.5333 27.0233 65.9077 27.16C65.2821 27.2967 64.6318 27.2691 64.02 27.08C63.4271 26.8949 62.8974 26.5487 62.49 26.08C62.0611 25.587 61.7682 24.9907 61.64 24.35C61.4872 23.7033 61.5044 23.028 61.69 22.39ZM63 25.57C63.3339 25.9502 63.7665 26.2306 64.25 26.38C64.7483 26.5245 65.2749 26.5417 65.7816 26.4298C66.2883 26.318 66.7588 26.0808 67.15 25.74C67.5191 25.4004 67.7916 24.9691 67.94 24.49C68.0794 23.9841 68.0931 23.4517 67.9798 22.9393C67.8665 22.4269 67.6297 21.95 67.29 21.55C66.9414 21.1679 66.4955 20.8879 66 20.74C65.4954 20.606 64.9646 20.606 64.46 20.74C63.9508 20.8377 63.4795 21.0768 63.1 21.43C62.7275 21.7708 62.4545 22.2062 62.31 22.69C62.1742 23.1977 62.1742 23.7322 62.31 24.24C62.4195 24.7361 62.6574 25.1947 63 25.57Z" fill="#303030"/>
<path d="M60.93 33.9996L63.52 32.9996C63.52 32.8196 63.58 32.6396 63.63 32.4496L64.12 30.6396L62 30.0896L62.19 29.3796L68.95 31.1896L68.27 33.7196C68.1168 34.4579 67.7055 35.1173 67.11 35.5796C66.8363 35.7697 66.5224 35.8938 66.1928 35.9424C65.8632 35.991 65.5268 35.9627 65.21 35.8596C64.7274 35.755 64.295 35.4888 63.9841 35.1052C63.6732 34.7216 63.5024 34.2434 63.5 33.7496L60.74 34.7496L60.93 33.9996ZM64.28 34.2796C64.3971 34.4922 64.556 34.6788 64.7472 34.8283C64.9383 34.9779 65.1577 35.0872 65.3921 35.1498C65.6266 35.2124 65.8713 35.2269 66.1115 35.1925C66.3517 35.1581 66.5825 35.0755 66.79 34.9496C67.2314 34.5951 67.5326 34.0955 67.64 33.5396L68.12 31.7396L64.73 30.8296L64.25 32.6296C64.0655 33.166 64.0761 33.7503 64.28 34.2796Z" fill="#303030"/>
<path d="M57.34 40.4391L56.83 40.0491L59.83 36.0991L65.41 40.3291L62.51 44.1591L62 43.7691L64.45 40.5391L62.45 39.0291L60.26 41.9191L59.76 41.5391L62 38.6491L59.93 37.0791L57.34 40.4391Z" fill="#303030"/>
<path d="M55 48.4099L53.57 48.4899V48.0099L55 47.9999L54.23 46.8099L54.62 46.5599L55.38 47.7599L56 46.4199L56.43 46.6499L55.75 47.9099L57.18 47.8299V48.3199H55.73L56.5 49.5099L56.11 49.7599L55.35 48.5599L54.69 49.8599L54.27 49.6199L55 48.4099Z" fill="#303030"/>
<path d="M42 47.6102L43.21 48.2802C43.4128 47.8905 43.696 47.5482 44.0407 47.2759C44.3854 47.0035 44.7839 46.8073 45.21 46.7002C45.6074 46.5762 46.0254 46.532 46.44 46.5702C46.7997 46.5978 47.1452 46.7222 47.44 46.9302C47.7064 47.131 47.9025 47.411 48 47.7302C48.1205 48.1249 48.0993 48.5494 47.94 48.9302C47.6891 49.4475 47.3508 49.9178 46.94 50.3202C47.2697 50.4973 47.5755 50.7157 47.85 50.9702C48.0386 51.1651 48.179 51.4013 48.26 51.6602C48.3112 51.8619 48.3144 52.0729 48.2693 52.2761C48.2241 52.4793 48.1319 52.6691 48 52.8302C47.733 53.2148 47.3347 53.4886 46.88 53.6001C46.4807 53.7524 46.0393 53.7524 45.64 53.6001C45.4624 53.5238 45.305 53.4073 45.1801 53.2598C45.0551 53.1123 44.9661 52.9379 44.92 52.7502C44.8151 52.4201 44.8402 52.0624 44.99 51.7502C45.2195 51.2955 45.5199 50.8803 45.88 50.5202L43.47 49.1802C43.378 49.6511 43.3578 50.1332 43.41 50.6102H42.8C42.7589 50.0228 42.8267 49.4329 43 48.8702L41.74 48.1702L42 47.6102ZM43.74 48.6102L46.39 50.0802C46.7373 49.7485 47.0248 49.3595 47.24 48.9302C47.3499 48.6402 47.3499 48.3201 47.24 48.0302C47.1946 47.8569 47.1069 47.6977 46.9847 47.5667C46.8625 47.4358 46.7097 47.3373 46.54 47.2802C46.1248 47.1399 45.6751 47.1399 45.26 47.2802C44.9207 47.3696 44.6053 47.5324 44.3357 47.757C44.0662 47.9816 43.8492 48.2626 43.7 48.5802L43.74 48.6102ZM47.5 52.6102C47.5653 52.4996 47.6063 52.3764 47.6201 52.2488C47.6339 52.1212 47.6202 51.9921 47.58 51.8701C47.5187 51.6727 47.4087 51.4938 47.26 51.3501C47.0054 51.1354 46.7269 50.9509 46.43 50.8002C46.1268 51.1 45.8615 51.4358 45.64 51.8001C45.5191 52.0273 45.4904 52.2924 45.56 52.5402C45.5917 52.6546 45.6473 52.761 45.7232 52.8523C45.799 52.9437 45.8934 53.0179 46 53.0701C46.2546 53.1661 46.5354 53.1661 46.79 53.0701C47.0619 52.9976 47.2992 52.8311 47.46 52.6001L47.5 52.6102Z" fill="#303030"/>
<path d="M29.81 55.3193L29.95 48.3193H30.66L30.55 53.9193L33.39 49.2593H33.74L36.4 53.9993L36.5 48.4293H37.21L37.08 55.4293H36.47L33.53 50.1993L30.42 55.3293L29.81 55.3193Z" fill="#303030"/>
<path d="M26.33 47.9996C26.7873 48.4354 27.1145 48.9897 27.2752 49.6007C27.4359 50.2116 27.4237 50.8552 27.24 51.4596C27.0757 52.0785 26.7475 52.6416 26.29 53.0896C25.8454 53.5266 25.2879 53.8313 24.68 53.9696C24.0387 54.1143 23.3711 54.0936 22.74 53.9096C22.111 53.756 21.5323 53.4425 21.06 52.9996C20.6095 52.5693 20.2875 52.0223 20.13 51.4196C19.9762 50.7966 19.9876 50.1442 20.1629 49.5269C20.3383 48.9096 20.6716 48.3487 21.13 47.8996C21.5667 47.4637 22.1123 47.1529 22.71 46.9996C23.348 46.8553 24.0122 46.876 24.64 47.0596C25.2755 47.2207 25.858 47.5447 26.33 47.9996ZM22.92 47.6496C22.4308 47.7635 21.9837 48.0131 21.63 48.3696C21.2616 48.7365 20.9991 49.196 20.87 49.6996C20.7305 50.2001 20.7305 50.7291 20.87 51.2296C20.9879 51.7165 21.241 52.1602 21.6 52.5096C21.9765 52.8778 22.4414 53.143 22.95 53.2796C23.4585 53.4091 23.9914 53.4091 24.5 53.2796C24.9895 53.1592 25.4382 52.9107 25.8 52.5596C26.1664 52.1912 26.4286 51.7323 26.56 51.2296C26.6998 50.7258 26.6998 50.1934 26.56 49.6896C26.432 49.2045 26.1765 48.7626 25.82 48.4096C25.4415 48.0409 24.9723 47.7788 24.46 47.6496C23.9561 47.5103 23.4239 47.5103 22.92 47.6496Z" fill="#303030"/>
<path d="M15.35 42.9991L15.62 45.7491C15.7915 45.8223 15.9585 45.9058 16.12 45.9991L17.75 46.9391L18.85 44.9991L19.5 45.3691L16 51.3991L13.72 50.0891C13.0461 49.7505 12.5144 49.1834 12.22 48.4891C12.1113 48.1762 12.0746 47.8429 12.1127 47.5139C12.1508 47.1849 12.2627 46.8688 12.44 46.5891C12.6724 46.1508 13.0409 45.7999 13.49 45.5891C13.946 45.4001 14.4505 45.3616 14.93 45.4791L14.64 42.5391L15.35 42.9991ZM14.21 46.1591C13.9751 46.218 13.7545 46.3237 13.5615 46.4698C13.3684 46.616 13.2068 46.7996 13.0864 47.0097C12.9659 47.2197 12.8891 47.452 12.8605 47.6924C12.8319 47.9329 12.8522 48.1766 12.92 48.4091C13.1544 48.9266 13.5607 49.3471 14.07 49.5991L15.68 50.5291L17.43 47.5291L15.82 46.5991C15.3572 46.2523 14.7874 46.0789 14.21 46.1091V46.1591Z" fill="#303030"/>
<path d="M9.43 38.3089L9.88 37.8589L13.33 41.4089L8.33 46.2889L5 42.8489L5.46 42.3989L8.29 45.3089L10 43.5789L7.52 40.9989L8 40.5389L10.53 43.1389L12.39 41.3289L9.43 38.3089Z" fill="#303030"/>
<path d="M1.99999 34.3798L2.23998 32.9998L2.70998 33.0698L2.43998 34.4898L3.76998 33.9998L3.92998 34.4398L2.57998 34.8998L3.68998 35.8398L3.36998 36.1998L2.29998 35.1998L2.04998 36.6198L1.56999 36.5298L1.84999 35.1098L0.509985 35.5898L0.359985 35.1998L1.69999 34.7298L0.589985 33.7998L0.919985 33.4398L1.99999 34.3798Z" fill="#303030"/>
</g>
<defs>
<clipPath id="clip0">
<rect width="68.93" height="55.46" fill="white" transform="translate(0 -0.000488281)"/>
</clipPath>
</defs>
</svg>
