<svg aria-hidden="true" style="position: absolute; width: 0; height: 0; overflow: hidden;" version="1.1" xmlns="http://www.w3.org/2000/svg" xmlns:xlink="http://www.w3.org/1999/xlink">
<defs>
<symbol id="facebook" viewBox="0 0 17 32">
<path d="M16.2 0h-4.036c-0.089-0.004-0.192-0.006-0.297-0.006-3.976 0-7.2 3.224-7.2 7.2 0 0.242 0.012 0.48 0.035 0.716l-0.002-0.030v3.62h-4.060c-0.352 0.009-0.634 0.296-0.634 0.65 0 0.004 0 0.007 0 0.011v-0.001 5.26c-0 0.003-0 0.007-0 0.010 0 0.353 0.282 0.641 0.633 0.65l0.001 0h4.060v13.26c-0 0.003-0 0.007-0 0.010 0 0.353 0.282 0.641 0.633 0.65l0.001 0h5.294c0.353-0.008 0.636-0.296 0.636-0.65 0-0.004-0-0.007-0-0.011v0.001-13.26h4.736c0.352-0.009 0.634-0.296 0.634-0.65 0-0.004-0-0.007-0-0.011v0.001-5.26c0-0 0-0 0-0.001 0-0.355-0.281-0.645-0.633-0.659l-0.001-0h-4.746v-3.080c-0.036-0.136-0.057-0.291-0.057-0.452 0-1.007 0.817-1.824 1.824-1.824 0.159 0 0.314 0.020 0.462 0.059l-0.013-0.003h2.72c0.352-0.009 0.634-0.296 0.634-0.65 0-0.004-0-0.007-0-0.011v0.001-4.88c0-0.003 0-0.007 0-0.011 0-0.35-0.276-0.635-0.623-0.649l-0.001-0z"></path>
</symbol>
<symbol id="google-plus" viewBox="0 0 34 32">
<path  d="M1.763 7.979c-0.015 0.166-0.024 0.358-0.024 0.553 0 2.188 1.107 4.118 2.792 5.259l0.022 0.014c1.158 0.678 2.55 1.078 4.036 1.078 0.055 0 0.11-0.001 0.165-0.002l-0.008 0h0.523c-0.012 0.129-0.019 0.28-0.019 0.432 0 1.209 0.426 2.318 1.136 3.186l-0.007-0.009h-0.063c-2.427 0-10.343 0.507-10.343 6.776 0 6.396 7.272 6.733 8.73 6.733h0.479c2.029-0.002 3.955-0.437 5.692-1.217l-0.088 0.035c2.61-1.122 4.404-3.671 4.404-6.639 0-0.145-0.004-0.288-0.013-0.43l0.001 0.020c-0.231-2.739-1.712-5.089-3.864-6.502l-0.033-0.020c-0.876-0.515-1.538-1.316-1.864-2.271l-0.009-0.030c0.195-0.842 0.717-1.536 1.421-1.955l0.014-0.008c1.55-1.276 2.531-3.195 2.531-5.343 0-0.133-0.004-0.264-0.011-0.395l0.001 0.018c0-2.66-0.357-4.433-2.548-5.551 0.422-0.132 0.912-0.222 1.418-0.252l0.017-0.001c1.188-0.169 2.926-0.338 2.926-1.266v-0.19h-8.654c-0.093 0-8.762 0.317-8.762 7.979zM15.74 24.359c0.165 2.554-2.111 4.454-5.501 4.686-3.455 0.253-6.299-1.267-6.465-3.821-0.001-0.039-0.002-0.085-0.002-0.131 0-1.313 0.612-2.482 1.566-3.239l0.009-0.007c1.162-0.971 2.646-1.593 4.271-1.688l0.020-0.001c0.146-0.014 0.315-0.022 0.486-0.022 0.034 0 0.068 0 0.101 0.001l-0.005-0c0.184-0.024 0.397-0.038 0.613-0.038 2.492 0 4.554 1.838 4.904 4.233l0.003 0.027zM13.48 6.227c0.844 2.892-0.435 5.91-2.478 6.459-0.204 0.054-0.439 0.085-0.681 0.085-0.015 0-0.031-0-0.046-0l0.002 0c-2.258-0.358-4.023-2.101-4.411-4.316l-0.005-0.032c-0.171-0.535-0.269-1.15-0.269-1.788 0-0.737 0.131-1.443 0.371-2.096l-0.014 0.042c0.333-1.054 1.14-1.871 2.165-2.21l0.024-0.007c0.216-0.064 0.465-0.102 0.722-0.106l0.002-0c2.261 0 3.715 0.908 4.616 3.968zM28.068 12.517v-5.467h-3.588v5.467h-5.649v3.441h5.649v5.467h3.588v-5.467h5.651v-3.441h-5.651z"></path>
</symbol>
<symbol id="linkedin" viewBox="0 0 32 32">
<path  d="M7.271 10.4h-6.875v21.6h6.875v-21.6zM7.707 3.726c0.001-0.039 0.002-0.084 0.002-0.13 0-2.13-1.726-3.856-3.856-3.856s-3.856 1.726-3.856 3.856c0 2.108 1.691 3.821 3.791 3.855l0.003 0h0.041c0.075 0.006 0.163 0.009 0.251 0.009 2.002 0 3.625-1.623 3.625-3.625 0-0.038-0.001-0.077-0.002-0.115l0 0.006zM32 19.611c0-6.629-3.376-9.714-7.895-9.714-0.070-0.003-0.152-0.004-0.234-0.004-2.593 0-4.845 1.459-5.979 3.602l-0.018 0.037h0.041v-3.131h-6.857s0.082 2.034 0 21.6h6.857v-12.046c-0.002-0.052-0.003-0.113-0.003-0.174 0-0.573 0.084-1.127 0.242-1.649l-0.010 0.040c0.501-1.504 1.881-2.574 3.516-2.606l0.004-0c2.48 0 3.479 1.989 3.479 4.891v11.543h6.857v-12.389z"></path>
</symbol>
<symbol id="twitter" viewBox="0 0 40 32">
<path  d="M39.35 0.583c-1.521 0.907-3.291 1.594-5.176 1.959l-0.104 0.017c-1.531-1.579-3.671-2.559-6.041-2.559-0.008 0-0.016 0-0.024 0h0.001c-0.033-0-0.071-0.001-0.11-0.001-4.488 0-8.134 3.605-8.201 8.077l-0 0.006c0 0.656 0.079 1.294 0.227 1.905l-0.011-0.055c-6.882-0.339-12.955-3.539-17.099-8.428l-0.029-0.035c-0.707 1.164-1.125 2.572-1.125 4.077 0 2.813 1.461 5.284 3.665 6.698l0.032 0.019c-1.385-0.047-2.674-0.416-3.807-1.036l0.045 0.022v0.101c0.037 3.943 2.872 7.213 6.613 7.922l0.051 0.008c-0.657 0.176-1.411 0.277-2.188 0.279h-0.001c-0.004 0-0.009 0-0.013 0-0.549 0-1.086-0.055-1.604-0.161l0.051 0.009c1.14 3.267 4.174 5.578 7.755 5.625l0.006 0c-2.872 2.152-6.496 3.446-10.421 3.446-0.662 0-1.316-0.037-1.959-0.108l0.079 0.007c3.612 2.274 8.005 3.623 12.713 3.623 0.009 0 0.018 0 0.028 0h-0.001c0.149 0.003 0.326 0.005 0.502 0.005 12.726 0 23.052-10.272 23.139-22.977l0-0.008-0.028-1.064c1.64-1.135 3.019-2.514 4.118-4.102l0.035-0.053c-1.389 0.606-3.001 1.052-4.686 1.258l-0.085 0.008c1.708-1.005 2.998-2.565 3.636-4.427l0.017-0.058z"></path>
</symbol>
</defs>
</svg>
